REM DIRINDEX 1\3,1\2\4,1\2\5,1\2\6
REM DIRNAME cjc137,folder01,folder02,folder03,folder04,folder05
TITLE ""
FILE "141.mp3" MP3
  TRACK 01 AUDIO
    TITLE "4:cjc137_6085"
    INDEX 01 00:00:00
  TRACK 02 AUDIO
    TITLE "0:"
    INDEX 01 00:01:24
  TRACK 03 AUDIO
    TITLE "6:cjc137_6086"
    INDEX 01 00:01:32
  TRACK 04 AUDIO
    TITLE "0:"
    INDEX 01 00:02:45
  TRACK 05 AUDIO
    TITLE "5:cjc137_6087"
    INDEX 01 00:02:51
  TRACK 06 AUDIO
    TITLE "0:"
    INDEX 01 00:04:01
  TRACK 07 AUDIO
    TITLE "4:cjc137_6088"
    INDEX 01 00:05:09
  TRACK 08 AUDIO
    TITLE "0:"
    INDEX 01 00:06:33
  TRACK 09 AUDIO
    TITLE "6:cjc137_6089"
    INDEX 01 00:06:37
  TRACK 10 AUDIO
    TITLE "0:"
    INDEX 01 00:07:52
  TRACK 11 AUDIO
    TITLE "5:cjc137_6090"
    INDEX 01 00:07:56
  TRACK 12 AUDIO
    TITLE "0:"
    INDEX 01 00:09:06
  TRACK 13 AUDIO
    TITLE "4:cjc137_6091"
    INDEX 01 00:10:12
  TRACK 14 AUDIO
    TITLE "0:"
    INDEX 01 00:11:07
  TRACK 15 AUDIO
    TITLE "6:cjc137_6092"
    INDEX 01 00:11:15
  TRACK 16 AUDIO
    TITLE "0:"
    INDEX 01 00:12:22
  TRACK 17 AUDIO
    TITLE "5:cjc137_6093"
    INDEX 01 00:12:26
  TRACK 18 AUDIO
    TITLE "0:"
    INDEX 01 00:13:22
  TRACK 19 AUDIO
    TITLE "4:cjc137_6094"
    INDEX 01 00:14:31
  TRACK 20 AUDIO
    TITLE "0:"
    INDEX 01 00:15:44
  TRACK 21 AUDIO
    TITLE "6:cjc137_6095"
    INDEX 01 00:15:50
  TRACK 22 AUDIO
    TITLE "0:"
    INDEX 01 00:16:63
  TRACK 23 AUDIO
    TITLE "5:cjc137_6096"
    INDEX 01 00:16:67
  TRACK 24 AUDIO
    TITLE "0:"
    INDEX 01 00:18:09
  TRACK 25 AUDIO
    TITLE "4:cjc137_6097"
    INDEX 01 00:19:15
  TRACK 26 AUDIO
    TITLE "0:"
    INDEX 01 00:20:26
  TRACK 27 AUDIO
    TITLE "6:cjc137_6098"
    INDEX 01 00:20:32
  TRACK 28 AUDIO
    TITLE "0:"
    INDEX 01 00:21:23
  TRACK 29 AUDIO
    TITLE "5:cjc137_6099"
    INDEX 01 00:21:27
  TRACK 30 AUDIO
    TITLE "0:"
    INDEX 01 00:22:40
  TRACK 31 AUDIO
    TITLE "4:cjc137_6100"
    INDEX 01 00:23:44
  TRACK 32 AUDIO
    TITLE "0:"
    INDEX 01 00:25:03
  TRACK 33 AUDIO
    TITLE "6:cjc137_6101"
    INDEX 01 00:25:07
  TRACK 34 AUDIO
    TITLE "0:"
    INDEX 01 00:26:44
  TRACK 35 AUDIO
    TITLE "5:cjc137_6102"
    INDEX 01 00:26:52
  TRACK 36 AUDIO
    TITLE "0:"
    INDEX 01 00:28:08
  TRACK 37 AUDIO
    TITLE "4:cjc137_6103"
    INDEX 01 00:29:17
  TRACK 38 AUDIO
    TITLE "0:"
    INDEX 01 00:30:44
  TRACK 39 AUDIO
    TITLE "6:cjc137_6104"
    INDEX 01 00:30:50
  TRACK 40 AUDIO
    TITLE "0:"
    INDEX 01 00:31:55
  TRACK 41 AUDIO
    TITLE "5:cjc137_6105"
    INDEX 01 00:31:65
  TRACK 42 AUDIO
    TITLE "0:"
    INDEX 01 00:33:17
  TRACK 43 AUDIO
    TITLE "4:cjc137_6106"
    INDEX 01 00:34:24
  TRACK 44 AUDIO
    TITLE "0:"
    INDEX 01 00:35:23
  TRACK 45 AUDIO
    TITLE "6:cjc137_6107"
    INDEX 01 00:35:31
  TRACK 46 AUDIO
    TITLE "0:"
    INDEX 01 00:36:31
  TRACK 47 AUDIO
    TITLE "5:cjc137_6108"
    INDEX 01 00:36:38
  TRACK 48 AUDIO
    TITLE "0:"
    INDEX 01 00:37:38
  TRACK 49 AUDIO
    TITLE "4:cjc137_6109"
    INDEX 01 00:38:47
  TRACK 50 AUDIO
    TITLE "0:"
    INDEX 01 00:39:58
  TRACK 51 AUDIO
    TITLE "6:cjc137_6110"
    INDEX 01 00:39:64
  TRACK 52 AUDIO
    TITLE "0:"
    INDEX 01 00:41:08
  TRACK 53 AUDIO
    TITLE "5:cjc137_6111"
    INDEX 01 00:41:12
  TRACK 54 AUDIO
    TITLE "0:"
    INDEX 01 00:42:25
  TRACK 55 AUDIO
    TITLE "4:cjc137_6112"
    INDEX 01 00:43:33
  TRACK 56 AUDIO
    TITLE "0:"
    INDEX 01 00:44:50
  TRACK 57 AUDIO
    TITLE "6:cjc137_6113"
    INDEX 01 00:44:54
  TRACK 58 AUDIO
    TITLE "0:"
    INDEX 01 00:45:59
  TRACK 59 AUDIO
    TITLE "5:cjc137_6114"
    INDEX 01 00:45:65
  TRACK 60 AUDIO
    TITLE "0:"
    INDEX 01 00:47:05
  TRACK 61 AUDIO
    TITLE "4:cjc137_6115"
    INDEX 01 00:48:12
  TRACK 62 AUDIO
    TITLE "0:"
    INDEX 01 00:49:14
  TRACK 63 AUDIO
    TITLE "6:cjc137_6116"
    INDEX 01 00:49:18
  TRACK 64 AUDIO
    TITLE "0:"
    INDEX 01 00:51:05
  TRACK 65 AUDIO
    TITLE "5:cjc137_6117"
    INDEX 01 00:51:09
  TRACK 66 AUDIO
    TITLE "0:"
    INDEX 01 00:52:08
  TRACK 67 AUDIO
    TITLE "4:cjc137_6118"
    INDEX 01 00:53:17
  TRACK 68 AUDIO
    TITLE "0:"
    INDEX 01 00:54:42
  TRACK 69 AUDIO
    TITLE "6:cjc137_6119"
    INDEX 01 00:54:46
  TRACK 70 AUDIO
    TITLE "0:"
    INDEX 01 00:55:50
  TRACK 71 AUDIO
    TITLE "5:cjc137_6120"
    INDEX 01 00:55:55
  TRACK 72 AUDIO
    TITLE "0:"
    INDEX 01 00:57:03
  TRACK 73 AUDIO
    TITLE "4:cjc137_6121"
    INDEX 01 00:58:09
  TRACK 74 AUDIO
    TITLE "0:"
    INDEX 01 00:59:08
  TRACK 75 AUDIO
    TITLE "6:cjc137_6122"
    INDEX 01 00:59:26
  TRACK 76 AUDIO
    TITLE "0:"
    INDEX 01 01:00:60
  TRACK 77 AUDIO
    TITLE "5:cjc137_6123"
    INDEX 01 01:00:62
  TRACK 78 AUDIO
    TITLE "0:"
    INDEX 01 01:01:62
  TRACK 79 AUDIO
    TITLE "4:cjc137_6124"
    INDEX 01 01:03:06
  TRACK 80 AUDIO
    TITLE "0:"
    INDEX 01 01:04:17
  TRACK 81 AUDIO
    TITLE "6:cjc137_6125"
    INDEX 01 01:04:23
  TRACK 82 AUDIO
    TITLE "0:"
    INDEX 01 01:05:11
  TRACK 83 AUDIO
    TITLE "5:cjc137_6126"
    INDEX 01 01:05:17
  TRACK 84 AUDIO
    TITLE "0:"
    INDEX 01 01:06:26
  TRACK 85 AUDIO
    TITLE "4:cjc137_6127"
    INDEX 01 01:07:35
  TRACK 86 AUDIO
    TITLE "0:"
    INDEX 01 01:08:50
  TRACK 87 AUDIO
    TITLE "6:cjc137_6128"
    INDEX 01 01:08:54
  TRACK 88 AUDIO
    TITLE "0:"
    INDEX 01 01:09:71
  TRACK 89 AUDIO
    TITLE "5:cjc137_6129"
    INDEX 01 01:10:04
  TRACK 90 AUDIO
    TITLE "0:"
    INDEX 01 01:11:17
  TRACK 91 AUDIO
    TITLE "4:cjc137_6130"
    INDEX 01 01:12:24
  TRACK 92 AUDIO
    TITLE "0:"
    INDEX 01 01:13:40
  TRACK 93 AUDIO
    TITLE "6:cjc137_6131"
    INDEX 01 01:13:45
  TRACK 94 AUDIO
    TITLE "0:"
    INDEX 01 01:14:43
  TRACK 95 AUDIO
    TITLE "5:cjc137_6132"
    INDEX 01 01:14:49
  TRACK 96 AUDIO
    TITLE "0:"
    INDEX 01 01:15:64
  TRACK 97 AUDIO
    TITLE "4:cjc137_6133"
    INDEX 01 01:16:73
  TRACK 98 AUDIO
    TITLE "0:"
    INDEX 01 01:18:19
  TRACK 99 AUDIO
    TITLE "6:cjc137_6134"
    INDEX 01 01:18:25
  TRACK 100 AUDIO
    TITLE "0:"
    INDEX 01 01:19:62
  TRACK 101 AUDIO
    TITLE "5:cjc137_6135"
    INDEX 01 01:19:68
  TRACK 102 AUDIO
    TITLE "0:"
    INDEX 01 01:21:14
  TRACK 103 AUDIO
    TITLE "4:cjc137_6136"
    INDEX 01 01:22:19
  TRACK 104 AUDIO
    TITLE "0:"
    INDEX 01 01:23:50
  TRACK 105 AUDIO
    TITLE "6:cjc137_6137"
    INDEX 01 01:23:54
  TRACK 106 AUDIO
    TITLE "0:"
    INDEX 01 01:24:73
  TRACK 107 AUDIO
    TITLE "5:cjc137_6138"
    INDEX 01 01:25:04
  TRACK 108 AUDIO
    TITLE "0:"
    INDEX 01 01:26:32
  TRACK 109 AUDIO
    TITLE "4:cjc137_6139"
    INDEX 01 01:27:38
  TRACK 110 AUDIO
    TITLE "0:"
    INDEX 01 01:28:43
  TRACK 111 AUDIO
    TITLE "6:cjc137_6140"
    INDEX 01 01:28:49
  TRACK 112 AUDIO
    TITLE "0:"
    INDEX 01 01:29:62
  TRACK 113 AUDIO
    TITLE "5:cjc137_6141"
    INDEX 01 01:29:66
  TRACK 114 AUDIO
    TITLE "0:"
    INDEX 01 01:31:00
  TRACK 115 AUDIO
    TITLE "4:cjc137_6142"
    INDEX 01 01:32:04
  TRACK 116 AUDIO
    TITLE "0:"
    INDEX 01 01:33:05
  TRACK 117 AUDIO
    TITLE "6:cjc137_6143"
    INDEX 01 01:33:09
  TRACK 118 AUDIO
    TITLE "0:"
    INDEX 01 01:34:32
  TRACK 119 AUDIO
    TITLE "5:cjc137_6144"
    INDEX 01 01:34:36
  TRACK 120 AUDIO
    TITLE "0:"
    INDEX 01 01:35:35
